<svg id="Layer_1" data-name="Layer 1" xmlns="http://www.w3.org/2000/svg" viewBox="0 0 371.74 304.7"><defs><style>.cls-1{fill:#3872b8;}</style></defs><title>logo1</title><path class="cls-1" d="M183.35,110.67l-5.87,32.94H160.85q-42.39,0-68.32,16.47T61.06,209.81l-16,89.35H12.47l16-89.35a111.13,111.13,0,0,1,44.84-72.56q17.77-12.89,41.58-19.73t52.18-6.85Z"/><path class="cls-1" d="M355.39,5.37q-29.68,0-52.18,5.71t-39,18.42q-16.47,12.72-27.07,33.26c-7.07,13.7-12.56,29.06-16.47,48.63H192l-5.55,32.29h28.37l-9.68,55.14c-1,3.58-1.77,7.23-2.42,11l-16,89.35h32.61l7.28-40.68c1.16-5,2.23-10.22,3.19-15.7l17.56-99.1H309.7L323,111.39H253.26c2-15.06,5.16-26.3,10.16-36.23a62.94,62.94,0,0,1,19.73-23.58q12.23-8.69,29.19-11.79t39.13-2.13L366.8,5.37Z"/><path class="cls-1" d="M35.94,155.72l7.28-44.66H89.34S41.76,128.53,35.94,155.72Z"/></svg>