<?xml version="1.0" encoding="utf-8"?>
<!-- Generator: Adobe Illustrator 23.0.1, SVG Export Plug-In . SVG Version: 6.00 Build 0)  -->
<svg version="1.1" id="Layer_1" xmlns="http://www.w3.org/2000/svg" xmlns:xlink="http://www.w3.org/1999/xlink" x="0px" y="0px"
	 viewBox="0 0 1169.29 304.7" style="enable-background:new 0 0 1169.29 304.7;" xml:space="preserve">
<style type="text/css">
	.st0{fill:#25367B;}
	.st1{fill:#3872B8;}
</style>
<g>
	<g>
		<path class="st0" d="M151.4,286.84c-8.92,2.61-16.69,4.73-23.32,6.36c-6.63,1.63-12.55,2.93-17.77,3.91
			c-5.22,0.98-9.84,1.63-13.86,1.96c-4.03,0.33-7.88,0.49-11.58,0.49c-10.44,0-19.89-1.52-28.37-4.56
			c-8.48-3.04-15.49-7.5-21.03-13.37c-5.54-5.87-9.41-13.15-11.58-21.85c-2.18-8.69-2.28-18.7-0.33-30L38.89,144L4,143.68
			l5.87-32.28h34.57l8.48-47.29h32.61l-8.48,47.29h98.84L170.02,144H71.5l-15.33,85.77c-1.96,11.31-0.65,19.73,3.91,25.27
			c4.56,5.55,11.09,9.08,19.57,10.6c8.91,1.3,19.13,0.93,30.65-1.14c11.52-2.06,23.91-4.94,37.18-8.64L151.4,286.84z"/>
		<path class="st0" d="M389.26,111.39l-18.2,111.19c-2.31,12.83-6.43,24.13-12.4,33.92c-5.96,9.78-13.29,18.05-21.97,24.78
			c-8.69,6.74-18.57,11.8-29.66,15.16c-11.09,3.37-22.71,5.05-34.84,5.05c-14.65,0-28.52-2.17-41.59-6.52
			c-13.08-4.35-24.22-10.93-33.43-19.73c-9.21-8.81-15.91-19.67-20.09-32.61c-4.19-12.93-4.82-28.1-1.88-45.49l14.12-85.75h31.39
			l-14.12,85.93c-1.88,11.11-1.62,21.08,0.78,29.9c2.4,8.83,6.69,16.34,12.87,22.55c6.17,6.21,14.12,11.01,23.86,14.38
			c9.73,3.38,20.98,5.07,33.74,5.07c10.46,0,19.41-1.25,26.84-3.76c7.43-2.51,13.55-5.88,18.36-10.13
			c4.81-4.25,8.58-9.15,11.3-14.71c2.72-5.55,4.6-11.49,5.65-17.81l18.52-111.74L389.26,111.39z"/>
		<path class="st1" d="M543.33,110.67l-5.87,32.94h-16.63c-28.26,0-51.04,5.49-68.32,16.47c-17.28,10.98-27.77,27.56-31.47,49.73
			l-15.98,89.35h-32.61l15.98-89.35c2.61-15.21,7.77-28.97,15.49-41.25c7.71-12.28,17.5-22.72,29.35-31.31
			c11.85-8.59,25.71-15.16,41.58-19.73c15.87-4.57,33.26-6.85,52.18-6.85H543.33z"/>
		<path class="st1" d="M715.37,5.37c-19.79,0-37.18,1.91-52.18,5.71c-15,3.81-27.99,9.95-38.97,18.42
			c-10.98,8.48-20,19.57-27.07,33.26c-7.07,13.7-12.56,29.06-16.47,48.63h-28.7l-5.55,32.29h28.37l-9.68,55.14
			c-0.96,3.58-1.77,7.23-2.42,10.99l-15.98,89.35h32.61l7.28-40.68c1.16-5.01,2.23-10.22,3.19-15.7l17.56-99.1h62.32L683,111.39
			h-69.76c1.96-15.06,5.16-26.3,10.16-36.23c5-9.94,11.58-17.79,19.73-23.58c8.15-5.79,17.88-9.72,29.19-11.79
			c11.3-2.07,24.35-2.78,39.13-2.13l15.33-32.29H715.37z"/>
		<path class="st0" d="M801.6,103.55c16.31,0,31.14,2.18,44.51,6.52c13.37,4.35,24.57,10.71,33.59,19.08
			c9.02,8.37,15.49,18.64,19.4,30.82c3.91,12.18,4.45,26.2,1.63,42.07c-2.61,14.35-7.72,27.51-15.33,39.46
			c-7.61,11.96-17.07,22.29-28.37,30.98c-11.31,8.7-24.02,15.49-38.16,20.38c-14.13,4.89-29.02,7.34-44.68,7.34
			c-14.79,0-27.88-1.9-39.3-5.71c-11.42-3.8-20.76-9.29-28.05-16.47c-7.29-7.17-12.39-15.98-15.33-26.41
			c-2.94-10.43-3.21-22.39-0.82-35.87l31.63-179.69h32.61l-14.02,79.13c8.69-3.44,18.37-6.24,29.02-8.39
			C780.62,104.63,791.17,103.55,801.6,103.55z M779.75,268.56c11.3,0,21.96-1.63,31.96-4.9c10-3.27,18.92-7.85,26.74-13.73
			c7.82-5.88,14.35-12.91,19.57-21.09c5.22-8.17,8.69-17.16,10.43-26.97c1.74-10.02,1.3-19.12-1.3-27.3
			c-2.61-8.17-7.17-15.09-13.7-20.76c-6.52-5.67-14.84-10.08-24.95-13.24c-10.11-3.16-21.8-4.74-35.06-4.74
			c-10.65,0-20.98,1.2-30.98,3.6c-10,2.39-19.13,5.12-27.39,8.17l-12.39,67.99c-2.61,15.91,1.19,28.72,11.42,38.41
			C744.32,263.72,759.53,268.56,779.75,268.56z"/>
		<path class="st0" d="M906.75,299.16l30.98-176.75h32.29l-30.98,176.75H906.75z M957.3,102.19c-6.31,0-11.36-2.28-15.16-6.85
			c-3.81-4.56-5.17-10.11-4.08-16.63c0.65-3.26,1.85-6.25,3.59-8.97c1.74-2.72,3.8-5.16,6.2-7.34c2.39-2.17,5.11-3.86,8.15-5.06
			c3.04-1.19,6.2-1.79,9.46-1.79c6.52,0,11.68,2.28,15.49,6.85c3.8,4.56,5.16,10,4.08,16.31c-1.09,6.52-4.35,12.07-9.78,16.63
			C969.8,99.9,963.82,102.19,957.3,102.19z"/>
		<path class="st0" d="M1137.31,284.9c-8.92,2.61-16.69,4.73-23.32,6.36c-6.63,1.63-12.55,2.93-17.77,3.91
			c-5.22,0.98-9.84,1.63-13.86,1.96c-4.02,0.33-7.88,0.49-11.58,0.49c-10.44,0-19.89-1.52-28.37-4.56
			c-8.48-3.04-15.49-7.5-21.03-13.37c-5.54-5.87-9.41-13.15-11.58-21.85c-2.18-8.69-2.28-18.7-0.33-30l15.33-85.77l-34.89-0.33
			l5.87-32.28h34.57l8.48-47.29h32.61l-8.48,47.29h102.72l-5.87,32.61h-102.4l-15.33,85.77c-1.96,11.31-0.65,19.73,3.91,25.27
			c4.57,5.55,11.09,9.08,19.57,10.6c8.91,1.3,19.13,0.93,30.65-1.14c11.52-2.06,23.91-4.94,37.18-8.64L1137.31,284.9z"/>
	</g>
	<path class="st1" d="M395.92,155.72l7.28-44.66h46.12C449.32,111.06,401.74,128.53,395.92,155.72z"/>
</g>
</svg>
