<svg id="Layer_1" data-name="Layer 1" xmlns="http://www.w3.org/2000/svg" viewBox="0 0 572.1 147.06"><defs><style>.cls-1{fill:none;stroke:#1c1cc4;stroke-miterlimit:10;stroke-width:2px;}</style></defs><title>logo</title><path class="cls-1" d="M8.87,95.39c2.15-3,1.85-6.54,2.48-9.86.52-2.78,1.63-4,4.71-3.94,4.19.09,9.32,1.78,12.35-.76s2.12-7.91,3-12c2.19-10.82,4-12,15.25-10.39,2.54.36,2.46,1.57,2.14,3.33-.92,5.08-1.68,10.2-2.85,15.23-.83,3.55-.24,4.88,3.81,4.81,13.11-.24,26.23,0,39.34-.18,3.94-.06,4.57,1.2,3.87,4.79-2.18,11.26-2.06,11.29-13.85,11.29-10.9,0-21.8.09-32.69-.06-2.91,0-4.11.71-4.62,3.79-2.19,13.28-4.88,26.49-7.05,39.78-1.55,9.42,3.69,15.53,13.44,16.34,9.39.78,18.36-1.52,27.27-3.91,3.18-.85,4.36-.7,4.87,3.06C81.84,168,82.06,168,71,170.72c-10.06,2.46-20.14,4.59-30.63,2.51-15.52-3.08-24.13-14.35-21.9-30,2-13.87,4.55-27.66,7.22-41.42.72-3.69-.15-4.46-3.58-4.27-4.42.23-8.85.05-13.28,0Z" transform="translate(-7.87 -28.94)"/><path class="cls-1" d="M363.87,29.94C360.7,40.63,355.38,46,342.41,46.3c-20,.42-29.72,11.43-33.5,31.3-.63,3.33,0,4.25,3.33,4.19,8.31-.16,16.63.07,24.94-.11,3.9-.09,5.37.43,3.52,4.82-4.61,11-4.42,11-16.34,11h-5.54c-13.61,0-13.5,0-15.84,13.57-3.36,19.44-6.93,38.85-10.35,58.28-.54,3.08-1.55,4.67-5.27,4.66-12,0-11.93.18-9.77-11.65,3.72-20.32,7.29-40.67,11.19-60.95.67-3.52-.33-3.93-3.4-4-9.63-.14-9.35-.22-8.23-10.17.52-4.57,2.32-6.29,6.65-5.54,6.4,1.11,8.91-1.32,10.55-7.92,5.91-23.78,20.23-39.36,45.56-42.89.62-.08,1.18-.66,1.77-1Z" transform="translate(-7.87 -28.94)"/><path class="cls-1" d="M371.07,83.27c13.82-4.59,26.95-6.58,40.65-4.75,32.92,4.4,47.71,31.27,33.36,61.22-14.6,30.49-52,41.16-79.36,30.91-14.17-5.3-21.87-17.13-19.81-32.21,2.94-21.57,7.09-43,10.76-64.43,1.43-8.37,3.09-16.7,4.33-25.1.51-3.47,2-4.42,5.38-4.41,11.48,0,11.53-.09,9.62,11.17C374.49,64.56,372.84,73.43,371.07,83.27Zm19.18,75.54c18-.79,32.76-7.3,40.74-24.45,8.17-17.57.9-33.16-17.69-38.51-14.56-4.2-28.83-2.07-42.9,2.78-2.5.86-2.68,2.8-3,4.75-1.76,9.61-3.47,19.22-5.19,28.84-2.21,12.34,3.85,21.93,16,25.12A42.26,42.26,0,0,0,390.25,158.81Z" transform="translate(-7.87 -28.94)"/><path class="cls-1" d="M554.35,80.76c6.84,0,13.69.24,20.51-.08,4.08-.19,4.52,1.34,3.87,4.83-2.09,11.15-2,11.16-13.41,11.16-11.09,0-22.18.18-33.26-.09-4.17-.1-6.08.66-6.74,5.37-1.8,12.6-4.42,25.08-6.53,37.64-1.71,10.18,3.29,16.18,13.73,17,9.21.71,18-1.6,26.74-3.87,3.18-.82,4.4-.81,5,2.92,1.77,11.44,1.94,11.38-9.56,14.16-10.09,2.45-20.16,4.57-30.64,2.4-14.84-3.07-22.83-12.85-21.68-28,1.1-14.55,4.69-28.77,7.24-43.11.77-4.34-.66-4.74-4-4.43a8.37,8.37,0,0,1-1.66,0c-3.43-.37-9.32,1.28-9.82-.83-1-4.15.87-9,1.74-13.51.47-2.44,2.65-1.37,4.12-1.5,4.2-.37,9.37,1.65,12.36-.88s1.91-7.93,2.95-12c.85-3.34-.09-8.53,2.58-9.66,3.78-1.6,8.67-.59,13.09-.67,2.51,0,1.83,1.68,1.6,3.06-.93,5.46-1.68,11-2.94,16.35-.73,3.12.08,3.88,3.09,3.81C539.93,80.66,547.14,80.76,554.35,80.76Z" transform="translate(-7.87 -28.94)"/><path class="cls-1" d="M142.14,159c20.36,0,29.26-7.21,32.54-25.78,2.76-15.63,5.38-31.29,7.73-47,.59-4,2-5,6-4.87,10.22.4,10.15.18,8.43,10.27-2.36,13.83-5.08,27.63-6.78,41.54-3,24.65-22.17,44-54.39,41.65a62.16,62.16,0,0,1-15.18-3c-19.59-6.52-30.58-23.91-27.62-44.36,2-14.07,4.69-28,6.75-42.11.47-3.23,1.78-3.73,4.6-3.79,11.69-.23,11.7-.32,9.8,11-1.68,10-3.43,20-5.08,30-3.4,20.61,7.09,34.16,27.93,36.11C139,158.9,141.26,158.94,142.14,159Z" transform="translate(-7.87 -28.94)"/><path class="cls-1" d="M198.58,173.93c-8.51,0-8.45,0-7-8.18,2.05-11.43,4.1-22.86,6-34.32,4.48-27.06,25.3-45.94,54.43-49.27a137,137,0,0,1,18.78-1c2.29.05,3.15.47,2.77,3.21-1.77,12.79-1.65,12.81-14.6,13.21a66.85,66.85,0,0,0-20.08,3.53c-14.1,4.94-22.63,14.53-25,29.56-1.86,11.84-4.27,23.59-6.36,35.39C206.16,173.92,206.22,173.93,198.58,173.93Z" transform="translate(-7.87 -28.94)"/><path class="cls-1" d="M461.4,173.91c-8.91,0-9,0-7.68-7.65,4.35-25.08,8.86-50.12,13.07-75.22.57-3.41,1.92-4.08,5-4.13,11.69-.17,11.73-.26,9.74,11.19-4,22.89-8.29,45.73-11.89,68.68C468.67,173,466.53,175.36,461.4,173.91Z" transform="translate(-7.87 -28.94)"/><path class="cls-1" d="M481.28,54.27c5.72.07,9.92,4.32,9.73,9.83-.25,7-7,13.28-14,13.09a9.51,9.51,0,0,1-9.45-9.61C467.56,60.7,474.28,54.19,481.28,54.27Z" transform="translate(-7.87 -28.94)"/><path class="cls-1" d="M225.61,81.28c-8.54,5.26-17.41,9.69-23.44,18.46.43-2.68.83-5.38,1.28-8.06s1-5.43,1.43-8.16c.33-2.36,2-2.25,3.68-2.24C214.24,81.29,219.93,81.28,225.61,81.28Z" transform="translate(-7.87 -28.94)"/></svg>