<svg id="Layer_1" data-name="Layer 1" xmlns="http://www.w3.org/2000/svg" viewBox="0 0 487.75 304.7"><defs><style>.cls-1{fill:#25367b;}</style></defs><title>logo2</title><path class="cls-1" d="M123.67,103.55q24.46,0,44.51,6.52t33.59,19.08A70.78,70.78,0,0,1,221.2,160q5.87,18.27,1.63,42.07a109,109,0,0,1-15.33,39.46,120.24,120.24,0,0,1-28.37,31A133.81,133.81,0,0,1,141,292.91a135.83,135.83,0,0,1-44.68,7.34q-22.19,0-39.3-5.71T28.91,278a58.67,58.67,0,0,1-15.33-26.41Q9.2,236,12.76,215.74L44.39,36.05H77L63,115.18a170.2,170.2,0,0,1,29-8.39A159.64,159.64,0,0,1,123.67,103.55Zm-21.85,165a102.21,102.21,0,0,0,32-4.9,91.38,91.38,0,0,0,26.74-13.73,80.23,80.23,0,0,0,19.57-21.09,73.33,73.33,0,0,0,10.43-27q2.61-15-1.3-27.3a45.24,45.24,0,0,0-13.7-20.76q-9.78-8.51-24.95-13.24t-35.06-4.74a132.12,132.12,0,0,0-31,3.6,242,242,0,0,0-27.39,8.17l-12.39,68Q40.84,239.46,56.2,254t45.62,14.56Z"/><path class="cls-1" d="M228.82,299.16l31-176.75h32.29l-31,176.75Zm50.55-197a18.72,18.72,0,0,1-15.17-6.82q-5.71-6.84-4.08-16.63a26,26,0,0,1,3.59-9,36.3,36.3,0,0,1,6.2-7.34,26.6,26.6,0,0,1,8.15-5.06,25.72,25.72,0,0,1,9.46-1.79q9.78,0,15.49,6.85t4.08,16.31a29.16,29.16,0,0,1-27.72,23.51Z"/><path class="cls-1" d="M459.38,284.9q-13.38,3.92-23.32,6.36t-17.77,3.91a137.65,137.65,0,0,1-13.86,2q-6,.49-11.58.49a83.46,83.46,0,0,1-28.37-4.56,53,53,0,0,1-21-13.37,48.08,48.08,0,0,1-11.58-21.85q-3.27-13-.33-30l15.33-85.77L312,141.78l5.87-32.28h34.57l8.48-47.29h32.61l-8.48,47.29H487.75l-5.87,32.61H379.48L364.2,227.84q-2.94,17,3.91,25.27t19.57,10.6q13.36,1.95,30.65-1.14t37.18-8.64Z"/></svg>