<svg id="Layer_1" data-name="Layer 1" xmlns="http://www.w3.org/2000/svg" viewBox="0 0 399.81 304.7"><defs><style>.cls-1{fill:#25367b;}</style></defs><title>logo0</title><path class="cls-1" d="M151.4,286.84q-13.38,3.92-23.32,6.36t-17.77,3.91a136.78,136.78,0,0,1-13.86,2c-4,.33-7.88.49-11.58.49A83.59,83.59,0,0,1,56.5,295a52.9,52.9,0,0,1-21-13.37,48.14,48.14,0,0,1-11.58-21.85q-3.27-13-.33-30L38.89,144,4,143.68,9.87,111.4H44.44l8.48-47.29H85.53L77.05,111.4h98.84L170,144H71.5L56.17,229.77q-2.94,17,3.91,25.27t19.57,10.6q13.36,2,30.65-1.14t37.18-8.64Z"/><path class="cls-1" d="M389.26,111.39l-18.2,111.19a97.76,97.76,0,0,1-12.4,33.92A89.58,89.58,0,0,1,307,296.44a119.2,119.2,0,0,1-34.84,5.05A130.88,130.88,0,0,1,230.6,295a87.66,87.66,0,0,1-33.43-19.73,77,77,0,0,1-20.09-32.61q-6.29-19.4-1.88-45.49l14.12-85.75h31.39l-14.12,85.93q-2.82,16.67.78,29.9a49.9,49.9,0,0,0,12.87,22.55q9.25,9.31,23.86,14.38t33.74,5.07q15.69,0,26.84-3.76A52.93,52.93,0,0,0,323,255.33a47.16,47.16,0,0,0,11.3-14.71A64.11,64.11,0,0,0,340,222.81l18.52-111.74Z"/></svg>