<?xml version="1.0" encoding="utf-8"?>
<!-- Generator: Adobe Illustrator 23.0.0, SVG Export Plug-In . SVG Version: 6.00 Build 0)  -->
<svg version="1.1" id="Layer_1" xmlns="http://www.w3.org/2000/svg" xmlns:xlink="http://www.w3.org/1999/xlink" x="0px" y="0px"
	 viewBox="0 0 1168.9 302.1" style="enable-background:new 0 0 1168.9 302.1;" xml:space="preserve">
<style type="text/css">
	.st0{fill:none;stroke:#3872B8;stroke-width:6;stroke-miterlimit:10;}
</style>
<title>logoanimated</title>
<path class="st0" d="M151,284.5c-8.9,2.6-16.7,4.7-23.3,6.4c-6.6,1.6-12.5,2.9-17.8,3.9c-4.6,0.9-9.2,1.6-13.9,2
	c-4,0.3-7.9,0.5-11.6,0.5c-9.7,0.1-19.3-1.4-28.4-4.6c-8-2.7-15.2-7.3-21-13.4c-5.7-6.1-9.7-13.7-11.6-21.9
	c-2.2-8.7-2.3-18.7-0.3-30l15.3-85.8l-34.9-0.3L9.5,109H44l8.5-47.3h32.6L76.6,109h98.8l-5.8,32.6H71.1l-15.3,85.8
	c-2,11.3-0.6,19.8,3.9,25.3s11.1,9,19.6,10.6c8.9,1.3,19.1,1,30.7-1.1s23.9-5,37.2-8.6L151,284.5z"/>
<path class="st0" d="M388.9,109l-18.2,111.2c-2,12-6.2,23.5-12.4,33.9c-11.6,19.3-30,33.6-51.7,39.9c-11.3,3.4-23,5.1-34.8,5.1
	c-14.1,0.1-28.2-2.1-41.6-6.5c-12.5-4-23.9-10.7-33.4-19.7c-9.3-9-16.2-20.2-20.1-32.6c-4.2-12.9-4.8-28.1-1.9-45.5l14.1-85.8h31.4
	L206.2,195c-1.9,11.1-1.6,21.1,0.8,29.9c2.2,8.5,6.7,16.3,12.9,22.6c6.2,6.2,14.1,11,23.9,14.4c9.7,3.4,21,5.1,33.7,5.1
	c10.5,0,19.4-1.3,26.8-3.8c6.7-2.1,13-5.6,18.3-10.1c4.7-4.1,8.5-9.1,11.3-14.7c2.8-5.6,4.7-11.6,5.7-17.8l18.5-111.8L388.9,109z"/>
<path class="st0" d="M542.9,108.3l-5.9,32.9h-16.6c-28.3,0-51,5.5-68.3,16.5s-27.8,27.6-31.5,49.7l-16,89.4H372l16-89.4
	c4.7-29.2,20.8-55.3,44.8-72.6c11.8-8.6,25.7-15.2,41.6-19.7s33.3-6.9,52.1-6.8H542.9z"/>
<path class="st0" d="M715,3c-19.8,0-37.2,1.9-52.2,5.7s-28,9.9-39,18.4c-11,8.5-20,19.6-27.1,33.3c-7.1,13.7-12.5,29-16.5,48.6
	h-28.7l-5.5,32.3h28.4l-9.7,55.1c-1,3.6-1.8,7.2-2.4,11l-16,89.4h32.6l7.3-40.7c1.2-5,2.2-10.2,3.2-15.7l17.5-99.1h62.3l13.3-32.3
	h-69.8c2-15.1,5.2-26.3,10.2-36.2c4.5-9.4,11.3-17.5,19.7-23.6c8.2-5.8,17.9-9.7,29.2-11.8c11.3-2.1,24.3-2.8,39.1-2.1L726.4,3H715z
	"/>
<path class="st0" d="M801.2,101.2c16.3,0,31.1,2.2,44.5,6.5s24.6,10.7,33.6,19.1c9,8.4,15.7,19.1,19.4,30.9
	c3.9,12.1,4.5,26.1,1.6,42c-2.5,14-7.7,27.4-15.3,39.5c-7.6,11.9-17.2,22.4-28.4,31c-11.5,8.8-24.4,15.7-38.2,20.4
	c-14.4,4.9-29.5,7.4-44.7,7.3c-14.8,0-27.9-1.9-39.3-5.7c-11.4-3.8-20.7-9.3-28-16.5c-7.4-7.3-12.6-16.4-15.3-26.4
	c-2.9-10.4-3.2-22.4-0.8-35.9L722,33.6h32.6l-14,79.1c9.4-3.6,19.1-6.5,29-8.4C780,102.3,790.6,101.2,801.2,101.2z M779.3,266.2
	c10.9,0.1,21.7-1.6,32-4.9c9.6-3.1,18.6-7.7,26.7-13.7c7.7-5.8,14.3-12.9,19.5-21.1c5.2-8.2,8.8-17.4,10.4-27
	c1.7-10,1.3-19.1-1.3-27.3c-2.5-8.1-7.3-15.3-13.7-20.8c-6.5-5.7-14.8-10.1-24.9-13.2s-21.8-4.7-35.1-4.8c-10.4,0-20.8,1.2-31,3.6
	c-9.3,2.2-18.4,4.9-27.4,8.2l-12.4,68c-2.6,15.9,1.2,28.7,11.4,38.4C743.9,261.3,759.1,266.2,779.3,266.2L779.3,266.2z"/>
<path class="st0" d="M906.3,296.8l31-176.8h32.3l-31,176.8H906.3z M956.9,99.8c-5.8,0.2-11.5-2.3-15.2-6.8
	c-3.8-4.6-5.2-10.1-4.1-16.6c0.6-3.2,1.8-6.3,3.6-9c1.7-2.7,3.8-5.2,6.2-7.3c2.4-2.2,5.2-3.8,8.2-5c3-1.2,6.2-1.8,9.5-1.8
	c6.5,0,11.7,2.3,15.5,6.8c3.8,4.6,5.2,10,4.1,16.3C982,89.7,970.5,99.4,956.9,99.8L956.9,99.8z"/>
<path class="st0" d="M1136.9,282.5c-8.9,2.6-16.7,4.7-23.3,6.4c-6.6,1.6-12.6,2.9-17.8,3.9c-4.6,0.9-9.2,1.5-13.9,2
	c-4,0.3-7.9,0.5-11.6,0.5c-9.6,0.1-19.2-1.4-28.4-4.6c-8-2.7-15.2-7.3-21-13.4c-5.7-6.2-9.7-13.7-11.6-21.9
	c-2.2-8.7-2.3-18.7-0.3-30l15.3-85.8l-34.9-0.3l5.9-32.3h34.6l8.5-47.3h32.6l-8.5,47.3h102.7l-5.9,32.6H1057l-15.3,85.8
	c-1.9,11.3-0.6,19.7,3.9,25.3c4.6,5.5,11.1,9.1,19.6,10.6c8.9,1.3,19.1,0.9,30.7-1.1c11.5-2.1,23.9-4.9,37.2-8.6L1136.9,282.5z"/>
<path class="st0" d="M395.5,153.4l7.3-44.7h46.1C448.9,108.7,401.3,126.2,395.5,153.4z"/>
</svg>
